<?xml version="1.0" encoding="UTF-8"?>
<svg width="415px" height="270px" viewBox="0 0 415 270" version="1.1" xmlns="http://www.w3.org/2000/svg" xmlns:xlink="http://www.w3.org/1999/xlink">
    <!-- Generator: Sketch 51.3 (57544) - http://www.bohemiancoding.com/sketch -->
    <title>rumtastingnotes</title>
    <desc>Created with Sketch.</desc>
    <defs>
        <linearGradient x1="50%" y1="0%" x2="50%" y2="100%" id="linearGradient-1">
            <stop stop-color="#E78423" offset="0%"></stop>
            <stop stop-color="#DC4F00" offset="100%"></stop>
        </linearGradient>
        <linearGradient x1="50%" y1="0%" x2="50%" y2="100%" id="linearGradient-2">
            <stop stop-color="#F08800" offset="0%"></stop>
            <stop stop-color="#DC5000" offset="100%"></stop>
        </linearGradient>
        <linearGradient x1="50%" y1="0%" x2="50%" y2="100%" id="linearGradient-3">
            <stop stop-color="#EF8600" offset="0%"></stop>
            <stop stop-color="#DC5100" offset="100%"></stop>
        </linearGradient>
    </defs>
    <g id="Icons" stroke="none" stroke-width="1" fill="none" fill-rule="evenodd">
        <g id="rumtastingnotes">
            <rect id="Rectangle" fill="url(#linearGradient-1)" fill-rule="nonzero" x="0" y="0" width="415" height="270"></rect>
            <g id="Bottle" transform="translate(140.000000, 22.000000)">
                <path d="M41.6492183,0.185365854 L60.4005928,0.185365854 C61.8553916,0.185365854 63.0347391,1.36471334 63.0347391,2.8195122 C63.0347391,2.97209987 63.0214808,3.124399 62.9951137,3.27469131 L61.2852292,13.0210328 C61.0641856,14.2809813 59.9698997,15.2 58.6907083,15.2 L43.3591027,15.2 C42.0799113,15.2 40.9856254,14.2809813 40.7645818,13.0210328 L39.0546973,3.27469131 C38.8033088,1.84177696 39.7611248,0.476379735 41.1940391,0.224991252 C41.3443314,0.198624181 41.4966306,0.185365854 41.6492183,0.185365854 Z" id="Rectangle-2" fill="#FFFFFF"></path>
                <path d="M100.917073,113.716785 C97.5604556,113.716752 93.2515658,113.716711 87.0169415,113.716652 C86.9534821,113.717367 86.8892984,113.717507 86.8243902,113.717073 C82.8495488,113.717073 79.4604483,116.930272 79.4604483,120.960976 C79.4604483,122.586379 80.0193946,124.123235 80.9978746,125.366931 C83.6758817,130.3282 84.7113816,135.255367 84.459333,140.59495 C84.2583873,144.851934 83.4264185,148.603981 81.4391737,155.324312 C80.2137328,158.344354 79.5804878,161.591546 79.5804878,164.959324 C79.5804878,177.217125 88.5822401,187.562032 100.917064,190.716667 L100.917073,212.234146 C100.917073,213.514561 100.722699,214.749578 100.361847,215.911298 L89.2941409,217.232597 C85.5554434,217.679582 82.7414634,220.85003 82.7414634,224.614634 L13.2,224.614634 C6.36244539,224.614634 0.819512195,219.071701 0.819512195,212.234146 L0.819512195,107.395122 C0.819512195,107.328188 0.820043364,107.261378 0.821101718,107.194696 C0.820042695,107.060514 0.819512195,106.926207 0.819512195,106.791775 C0.819512195,83.7195287 16.4461092,64.295379 37.697561,58.5164367 L37.697561,34.6926829 L64.0390244,34.6926829 L64.0390244,58.5164367 C85.2904761,64.295379 100.917073,83.7195287 100.917073,106.791775 C100.917073,106.926207 100.916543,107.060514 100.915484,107.194696 C100.916542,107.261378 100.917073,107.328188 100.917073,107.395122 L100.917073,113.716785 Z" id="Combined-Shape" fill="#FFFFFF"></path>
                <path d="M84.2615093,135.317073 C84.4829174,137.040886 84.5443224,138.794472 84.459333,140.59495 C84.2583873,144.851934 83.4264185,148.603981 81.4391737,155.324312 C80.2137328,158.344354 79.5804878,161.591546 79.5804878,164.959324 C79.5804878,173.985833 84.4618563,181.97504 91.9609719,186.819578 L91.9609756,205.121951 C91.9609756,209.922787 88.0691289,213.814634 83.2682927,213.814634 L18.995122,213.814634 C14.1942857,213.814634 10.302439,209.922787 10.302439,205.121951 L10.302439,135.317073 L84.2615093,135.317073 Z" id="Combined-Shape" fill="url(#linearGradient-2)"></path>
                <path d="M38.7512195,18.3609756 L62.9853659,18.3609756 C65.7494837,18.3609756 67.9902439,20.6017358 67.9902439,23.3658537 L67.9902439,26.5268293 C67.9902439,29.2909471 65.7494837,31.5317073 62.9853659,31.5317073 L38.7512195,31.5317073 C35.9871017,31.5317073 33.7463415,29.2909471 33.7463415,26.5268293 L33.7463415,23.3658537 C33.7463415,20.6017358 35.9871017,18.3609756 38.7512195,18.3609756 Z" id="Rectangle-5" fill="#FFFFFF"></path>
                <path d="M132.582785,157.559604 C133.477675,159.877461 133.963942,162.367477 133.963942,164.959745 C133.963942,176.520405 124.29275,186.047387 111.837113,187.340393 L111.837113,219.492498 L111.840027,219.492498 L128.228142,221.422875 C129.84668,221.613525 131.066381,222.985329 131.066381,224.615056 L87.0761371,224.615056 C87.0761371,222.984608 88.2948705,221.611488 89.9137896,221.417936 L106.01865,219.492498 L106.041991,219.492498 L106.041991,187.34039 C93.5863529,186.047361 83.9151614,176.52022 83.9151614,164.959745 C83.9151614,162.013444 84.4897779,159.246114 85.5392727,156.727802 C88.5007024,146.74075 91.5540409,135.477093 84.6110492,122.971447 C84.1088899,122.436658 83.795122,121.73269 83.795122,120.961397 C83.795122,119.288379 85.2714111,117.932129 86.9444297,117.932129 C87.0073508,117.932129 87.0698238,117.934047 87.1317934,117.937829 L87.1369407,117.931707 L131.126025,117.931707 L131.126953,117.932948 C131.150599,117.932403 131.174312,117.932129 131.198088,117.932129 C132.871107,117.932129 134.227357,119.288379 134.227357,120.961397 C134.227357,121.598578 133.86163,122.390871 133.275737,123.005358 C125.032029,136.339609 129.482181,147.33382 132.582785,157.559604 Z" id="Combined-Shape-Copy" fill="#FFFFFF"></path>
                <path d="M108.981288,183.385365 C119.833085,183.385365 128.787285,176.092146 130.198737,166.67022 C130.200367,166.659335 87.7452956,166.663157 87.7463415,166.67022 C89.1436481,176.106198 98.1183037,183.385365 108.981288,183.385365 Z" id="Oval-2" stroke="#979797" stroke-width="0.5" fill="url(#linearGradient-3)"></path>
            </g>
        </g>
    </g>
</svg>